<svg xmlns="http://www.w3.org/2000/svg" height="20" viewBox="0 -960 960 960" width="20" fill="white"><path d="M497.62-366.154q35.995 0 61.11-24.955 25.115-24.956 25.115-61.045v-196.615H698.46v-86.769H540.461v211.154q-9.462-6.384-19.615-10.077-10.154-3.692-23-3.692-36.089 0-61.044 24.89-24.956 24.89-24.956 60.884t24.89 61.11q24.89 25.115 60.884 25.115ZM314.308-260.001q-27.008 0-45.657-18.65-18.65-18.65-18.65-45.658v-455.382q0-27.008 18.65-45.658 18.649-18.65 45.657-18.65h455.383q27.007 0 45.657 18.65 18.65 18.65 18.65 45.658v455.382q0 27.008-18.65 45.658-18.65 18.65-45.657 18.65H314.308Zm0-51.999h455.383q4.615 0 8.462-3.846 3.846-3.847 3.846-8.463v-455.382q0-4.616-3.846-8.463-3.847-3.846-8.462-3.846H314.308q-4.616 0-8.462 3.846-3.847 3.847-3.847 8.463v455.382q0 4.616 3.847 8.463 3.846 3.846 8.462 3.846ZM190.309-136.003q-27.007 0-45.657-18.65-18.65-18.65-18.65-45.657v-507.381h51.999v507.381q0 4.616 3.846 8.462 3.847 3.847 8.462 3.847h507.382v51.998H190.309ZM301.999-792v480-480Z"/></svg>