<?xml version="1.0" encoding="UTF-8" standalone="no"?>
<!DOCTYPE svg PUBLIC "-//W3C//DTD SVG 1.1//EN" "http://www.w3.org/Graphics/SVG/1.1/DTD/svg11.dtd">
<svg version="1.1" xmlns="http://www.w3.org/2000/svg" xmlns:xlink="http://www.w3.org/1999/xlink" preserveAspectRatio="xMidYMid meet" viewBox="0 0 640 640" width="640" height="640"><defs><path d="M369.37 99.45C369.37 121.5 350.92 139.4 328.2 139.4C305.48 139.4 287.03 121.5 287.03 99.45C287.03 77.4 305.48 59.5 328.2 59.5C350.92 59.5 369.37 77.4 369.37 99.45Z" id="b4Bj0tIb8"></path><path d="M320.31 147.12C333.61 151.95 340.36 166.77 335.27 179.98C327.28 200.71 312.58 238.83 304.59 259.56C299.44 272.93 284.55 279.71 271.08 274.82C262.77 271.81 262.07 271.55 253.76 268.54C240.45 263.71 233.7 248.89 238.8 235.68C246.79 214.95 261.48 176.83 269.47 156.1C274.62 142.73 289.52 135.95 302.98 140.84C311.29 143.85 311.99 144.11 320.31 147.12Z" id="h1kTQML29d"></path><path d="M307.96 155.85C312.08 148.92 320.98 146.54 328.01 150.49C344.04 159.47 379.46 179.34 395.49 188.33C402.41 192.22 404.78 201.05 400.71 207.87C399.23 210.36 402.19 205.38 400.71 207.87C396.58 214.8 387.69 217.18 380.65 213.23C364.63 204.25 329.2 184.38 313.18 175.39C306.25 171.51 303.89 162.67 307.96 155.85C309.44 153.36 306.47 158.34 307.96 155.85Z" id="b8YDEnneW"></path><path d="M424.54 135.99C431.44 139.57 434.03 148.13 430.28 154.94C423.11 167.96 408.44 194.6 401.26 207.62C397.46 214.52 388.84 217.14 381.84 213.51C379.13 212.1 383.58 214.41 380.87 213C373.97 209.42 371.37 200.86 375.12 194.06C382.29 181.04 396.97 154.4 404.14 141.38C407.95 134.47 416.56 131.86 423.56 135.49C426.28 136.89 421.83 134.59 424.54 135.99Z" id="iintzyTXG"></path><path d="M307.64 157.61C310.18 150.11 306.06 141.98 298.51 139.57C280.91 133.96 241.82 121.51 224.21 115.9C216.58 113.47 208.41 117.6 205.85 125.19C204.92 127.92 206.77 122.46 205.85 125.19C203.31 132.69 207.42 140.83 214.97 143.23C232.58 148.84 271.66 161.29 289.27 166.9C296.9 169.33 305.07 165.2 307.64 157.61C308.56 154.88 306.71 160.35 307.64 157.61Z" id="b4eaNywTH"></path><path d="M207.55 56.1C199.87 57.22 194.58 64.38 195.76 72.05C198.02 86.65 202.64 116.52 204.89 131.12C206.09 138.83 213.27 144.14 220.99 143.02C224.06 142.57 219.34 143.26 222.42 142.81C230.1 141.69 235.39 134.53 234.21 126.86C231.95 112.26 227.33 82.38 225.08 67.78C223.88 60.08 216.7 54.77 208.98 55.89C205.91 56.34 210.63 55.65 207.55 56.1Z" id="ajNCwUrPh"></path><path d="M203.63 207.47C212.07 213.03 214.26 224.45 208.47 232.73C196.8 249.45 172.33 284.48 160.65 301.2C154.77 309.62 143.26 311.83 134.68 306.18C131.59 304.15 137.76 308.21 134.68 306.18C126.23 300.63 124.04 289.21 129.83 280.92C141.51 264.21 165.97 229.18 177.65 212.46C183.53 204.04 195.05 201.83 203.63 207.47C206.71 209.5 200.54 205.45 203.63 207.47Z" id="e1t3l85CWe"></path><path d="M269.42 258.04C265.48 266.23 255.72 269.78 247.44 266.03C231.82 258.96 199.85 244.48 184.23 237.41C176.06 233.7 172.53 224 176.42 215.92C178.15 212.32 176.26 216.25 177.99 212.65C181.93 204.46 191.69 200.91 199.98 204.66C215.6 211.74 247.56 226.21 263.18 233.29C271.36 236.99 274.88 246.69 270.99 254.77C269.26 258.38 271.16 254.44 269.42 258.04Z" id="d1ZW4RrygJ"></path><path d="M295.23 246.12C302.84 252.71 303.5 264.27 296.69 271.68C281.39 288.32 247.92 324.71 232.62 341.35C225.69 348.88 214.03 349.55 206.29 342.84C203.51 340.44 209.07 345.25 206.29 342.84C198.69 336.26 198.03 324.69 204.84 317.29C220.14 300.65 253.6 264.26 268.9 247.62C275.83 240.09 287.5 239.42 295.23 246.12C298.01 248.53 292.46 243.72 295.23 246.12Z" id="c1rbXc05xG"></path><path d="M221.16 316.12C230.58 317.46 237.11 326.22 235.69 335.64C232.99 353.55 227.46 390.2 224.76 408.11C223.33 417.57 214.55 424.11 205.08 422.77C201.13 422.21 206.39 422.96 202.44 422.4C193.02 421.06 186.5 412.29 187.91 402.88C190.61 384.97 196.14 348.32 198.84 330.41C200.27 320.95 209.05 314.41 218.52 315.75C222.47 316.31 217.21 315.56 221.16 316.12Z" id="a3fzn22IPt"></path><path d="M204.55 430.67C208.48 431.84 210.69 435.99 209.46 439.9C209.01 441.32 209.91 438.47 209.46 439.9C208.22 443.84 204.05 446.06 200.08 444.89C172.85 436.83 98.3 414.76 71.07 406.7C67.15 405.54 64.94 401.39 66.16 397.48C66.61 396.06 65.72 398.9 66.16 397.48C67.4 393.54 71.58 391.31 75.54 392.49C102.77 400.55 177.32 422.61 204.55 430.67Z" id="l59bRyBzW"></path><path d="M85.59 404.08C89.06 405.15 90.99 408.86 89.86 412.32C79.9 442.86 52.06 528.2 42.09 558.74C40.95 562.24 37.22 564.17 33.71 563.09C32.38 562.68 34.72 563.4 33.39 563C29.91 561.93 27.98 558.21 29.11 554.75C39.08 524.21 66.92 438.88 76.88 408.33C78.02 404.84 81.76 402.9 85.27 403.98C86.6 404.39 84.26 403.67 85.59 404.08Z" id="d6HHI6Lgt"></path><path d="M188.66 433.94C192.14 435.01 194.07 438.73 192.94 442.19C182.97 472.73 155.13 558.06 145.17 588.61C144.03 592.1 140.3 594.04 136.78 592.96C135.45 592.55 137.8 593.27 136.47 592.86C132.99 591.79 131.06 588.08 132.19 584.62C142.15 554.08 169.99 468.74 179.96 438.2C181.1 434.7 184.83 432.77 188.35 433.85C189.68 434.26 187.33 433.54 188.66 433.94Z" id="c3z5QdASg0"></path><path d="M165.15 494.97C168.29 495.9 170.06 499.23 169.08 502.35C168.54 504.06 168.72 503.49 168.19 505.19C167.19 508.35 163.85 510.13 160.68 509.19C139.46 502.91 81.52 485.76 60.3 479.48C57.16 478.55 55.39 475.22 56.37 472.1C56.91 470.39 56.73 470.96 57.27 469.26C58.26 466.1 61.6 464.32 64.77 465.26C85.99 471.54 143.93 488.69 165.15 494.97Z" id="f1Ftr2JOEd"></path><path d="M561.94 562.68C571.51 559.86 576.99 549.82 574.18 540.24C573.16 536.77 575.2 543.71 574.18 540.24C571.37 530.67 561.33 525.19 551.76 528.01C523.78 536.25 457.16 555.86 429.17 564.1C419.6 566.92 414.12 576.97 416.93 586.54C417.95 590.01 415.91 583.07 416.93 586.54C419.74 596.11 429.78 601.59 439.35 598.77C467.33 590.53 533.96 570.92 561.94 562.68Z" id="a4yLdwlFHy"></path><path d="M442.74 579.67C441.44 575.45 436.86 573.12 432.52 574.46C428.17 575.8 425.7 580.3 427 584.52C428.3 588.73 432.88 591.07 437.22 589.73C441.57 588.39 444.04 583.88 442.74 579.67Z" id="a1ZsufHVf7"></path><path d="M552.09 558.51C554.2 557.86 555.38 555.62 554.73 553.52C553.55 549.7 551.2 542.06 550.02 538.25C549.37 536.14 547.14 534.95 545.03 535.6C544.22 535.85 545.6 535.43 544.79 535.68C542.69 536.33 541.5 538.56 542.15 540.67C543.33 544.49 545.68 552.12 546.86 555.94C547.51 558.05 549.75 559.23 551.85 558.58C552.67 558.33 551.28 558.76 552.09 558.51Z" id="aPIaHXmGB"></path><path d="M540.55 562.07C542.66 561.42 543.84 559.18 543.19 557.07C542.01 553.26 539.66 545.62 538.48 541.8C537.83 539.69 535.59 538.51 533.49 539.16C532.68 539.41 534.06 538.98 533.25 539.23C531.14 539.88 529.96 542.12 530.61 544.23C531.79 548.05 534.14 555.68 535.32 559.5C535.97 561.61 538.21 562.79 540.31 562.14C541.12 561.89 539.74 562.32 540.55 562.07Z" id="l3ZkoHN4N"></path><path d="M529.01 565.62C531.11 564.97 532.3 562.74 531.65 560.63C530.47 556.81 528.12 549.18 526.94 545.36C526.29 543.25 524.05 542.07 521.95 542.72C521.14 542.97 522.52 542.54 521.71 542.79C519.6 543.44 518.42 545.68 519.07 547.78C520.25 551.6 522.6 559.24 523.78 563.05C524.43 565.16 526.66 566.35 528.77 565.7C529.58 565.45 528.2 565.87 529.01 565.62Z" id="d6yHHwhvCT"></path><path d="M409.15 132.06C400.15 136.39 389.35 132.61 385.02 123.62C383.45 120.36 386.59 126.87 385.02 123.62C380.69 114.63 384.47 103.84 393.46 99.51C419.74 86.87 482.33 56.76 508.62 44.11C517.61 39.78 528.41 43.56 532.74 52.55C534.31 55.81 531.17 49.3 532.74 52.55C537.07 61.54 533.3 72.34 524.31 76.66C498.02 89.31 435.43 119.42 409.15 132.06Z" id="evAv5LBXl"></path><path d="M508.98 64.76C507.12 60.76 508.96 55.95 513.08 54.04C517.19 52.12 522.05 53.81 523.91 57.8C525.77 61.8 523.94 66.6 519.82 68.52C515.7 70.44 510.85 68.75 508.98 64.76Z" id="a1ambWvEZg"></path><path d="M413.66 122.36C411.66 123.3 409.29 122.43 408.35 120.43C406.67 116.81 403.3 109.56 401.61 105.94C400.68 103.94 401.54 101.57 403.55 100.63C404.31 100.28 403 100.89 403.77 100.53C405.77 99.6 408.14 100.47 409.07 102.47C410.76 106.09 414.13 113.33 415.82 116.95C416.75 118.95 415.88 121.33 413.88 122.26C413.11 122.62 414.43 122.01 413.66 122.36Z" id="a8WkMMT2E"></path><path d="M424.61 117.27C422.61 118.2 420.23 117.33 419.3 115.33C417.62 111.71 414.24 104.47 412.56 100.84C411.63 98.84 412.49 96.47 414.49 95.54C415.26 95.18 413.95 95.79 414.71 95.43C416.71 94.5 419.09 95.37 420.02 97.37C421.71 100.99 425.08 108.23 426.77 111.86C427.7 113.86 426.83 116.23 424.83 117.16C424.06 117.52 425.38 116.91 424.61 117.27Z" id="ccWbZ6ME0"></path><path d="M435.56 112.17C433.56 113.1 431.18 112.23 430.25 110.23C428.56 106.61 425.19 99.37 423.5 95.75C422.57 93.75 423.44 91.37 425.44 90.44C426.21 90.08 424.89 90.69 425.66 90.34C427.66 89.4 430.04 90.27 430.97 92.27C432.66 95.89 436.03 103.14 437.71 106.76C438.65 108.76 437.78 111.13 435.78 112.07C435.01 112.42 436.33 111.81 435.56 112.17Z" id="c1ekdR9qPV"></path><path d="M7.92 600.32L629.13 600.32L629.13 604.87L7.92 604.87L7.92 600.32Z" id="d2vfj3TCLh"></path><path d="M443.36 382.91C453.21 384.52 462.5 377.84 464.12 367.99C464.7 364.43 463.53 371.56 464.12 367.99C465.73 358.15 459.06 348.86 449.21 347.25C420.42 342.55 351.88 331.36 323.09 326.66C313.24 325.05 303.95 331.72 302.33 341.57C301.75 345.14 302.92 338.01 302.33 341.57C300.72 351.42 307.39 360.71 317.24 362.31C346.03 367.01 414.57 378.21 443.36 382.91Z" id="b1sr5wVNI5"></path><path d="M328.57 346.56C329.23 342.2 326.11 338.11 321.62 337.44C317.12 336.76 312.94 339.75 312.29 344.11C311.63 348.47 314.75 352.56 319.24 353.24C323.74 353.91 327.92 350.92 328.57 346.56Z" id="a4xeEmHSLb"></path><path d="M436.29 374.88C438.47 375.21 440.51 373.71 440.83 371.53C441.43 367.58 442.62 359.67 443.21 355.72C443.54 353.54 442.03 351.51 439.85 351.18C439.01 351.05 440.45 351.27 439.61 351.14C437.43 350.82 435.39 352.32 435.07 354.5C434.47 358.45 433.28 366.35 432.69 370.3C432.36 372.48 433.87 374.52 436.05 374.85C436.89 374.97 435.45 374.76 436.29 374.88Z" id="d4Y8yBNlfd"></path><path d="M424.35 373.09C426.53 373.41 428.56 371.91 428.89 369.73C429.49 365.78 430.67 357.88 431.27 353.93C431.59 351.75 430.09 349.71 427.91 349.38C427.07 349.26 428.51 349.47 427.67 349.35C425.49 349.02 423.45 350.52 423.12 352.7C422.53 356.65 421.34 364.56 420.75 368.51C420.42 370.69 421.92 372.72 424.11 373.05C424.94 373.18 423.51 372.96 424.35 373.09Z" id="aRSh5tQf0"></path><path d="M412.4 371.29C414.59 371.62 416.62 370.12 416.95 367.93C417.54 363.98 418.73 356.08 419.32 352.13C419.65 349.95 418.15 347.92 415.97 347.59C415.13 347.46 416.57 347.68 415.73 347.55C413.55 347.22 411.51 348.73 411.18 350.91C410.59 354.86 409.4 362.76 408.81 366.71C408.48 368.89 409.98 370.93 412.16 371.25C413 371.38 411.57 371.16 412.4 371.29Z" id="c1tYodeqw9"></path><path d="M412.54 440.07C422.33 438.15 428.72 428.65 426.8 418.86C426.11 415.31 427.49 422.41 426.8 418.86C424.89 409.07 415.4 402.68 405.61 404.61C376.98 410.22 308.83 423.59 280.21 429.21C270.41 431.13 264.03 440.62 265.94 450.42C266.63 453.96 265.25 446.87 265.94 450.42C267.85 460.21 277.35 466.59 287.14 464.67C315.76 459.05 383.91 445.68 412.54 440.07Z" id="erCE3lwI3"></path><path d="M292.28 445.96C291.37 441.64 287.03 438.89 282.58 439.82C278.13 440.76 275.25 445.02 276.16 449.33C277.06 453.65 281.4 456.4 285.85 455.47C290.3 454.53 293.18 450.27 292.28 445.96Z" id="d2FrttZwbj"></path><path d="M403.11 435.01C405.27 434.56 406.66 432.44 406.2 430.28C405.39 426.37 403.75 418.55 402.93 414.64C402.48 412.48 400.36 411.09 398.2 411.55C397.37 411.72 398.79 411.42 397.96 411.6C395.8 412.05 394.42 414.17 394.87 416.32C395.69 420.24 397.33 428.06 398.15 431.97C398.6 434.13 400.71 435.51 402.87 435.06C403.7 434.88 402.28 435.18 403.11 435.01Z" id="b6I1ADwI5"></path><path d="M391.29 437.48C393.45 437.03 394.84 434.91 394.38 432.75C393.57 428.84 391.93 421.02 391.11 417.11C390.66 414.95 388.54 413.57 386.38 414.02C385.55 414.19 386.97 413.9 386.14 414.07C383.98 414.52 382.6 416.64 383.05 418.8C383.87 422.71 385.51 430.53 386.33 434.44C386.78 436.6 388.89 437.98 391.05 437.53C391.88 437.36 390.46 437.65 391.29 437.48Z" id="esnZT6WFK"></path><path d="M379.47 439.95C381.63 439.5 383.02 437.39 382.56 435.23C381.75 431.32 380.11 423.5 379.29 419.59C378.84 417.43 376.72 416.04 374.56 416.49C373.73 416.67 375.15 416.37 374.32 416.54C372.16 417 370.78 419.11 371.23 421.27C372.05 425.18 373.69 433 374.51 436.91C374.96 439.07 377.07 440.46 379.23 440C380.06 439.83 378.64 440.13 379.47 439.95Z" id="a5uwxO4EtZ"></path><path d="M275.09 62.98C273.41 59.2 275.07 54.65 278.78 52.83C282.5 51.01 286.89 52.61 288.57 56.4C290.25 60.18 288.59 64.73 284.87 66.55C281.16 68.37 276.77 66.77 275.09 62.98Z" id="d11NQ8xIcx"></path><path d="M282.84 13.26C286.43 13.26 289.33 16.16 289.33 19.75C289.33 25.64 289.33 36.82 289.33 42.71C289.33 46.3 286.43 49.2 282.84 49.2C281.14 49.2 282.52 49.2 280.81 49.2C277.23 49.2 274.33 46.3 274.33 42.71C274.33 36.82 274.33 25.64 274.33 19.75C274.33 16.16 277.23 13.26 280.81 13.26C282.52 13.26 281.14 13.26 282.84 13.26Z" id="aeodakvhc"></path></defs><g><g><g><use xlink:href="#b4Bj0tIb8" opacity="1" fill="#aaaaaa" fill-opacity="1"></use></g><g><use xlink:href="#h1kTQML29d" opacity="1" fill="#aaaaaa" fill-opacity="1"></use></g><g><use xlink:href="#b8YDEnneW" opacity="1" fill="#aaaaaa" fill-opacity="1"></use></g><g><use xlink:href="#iintzyTXG" opacity="1" fill="#aaaaaa" fill-opacity="1"></use></g><g><use xlink:href="#b4eaNywTH" opacity="1" fill="#aaaaaa" fill-opacity="1"></use></g><g><use xlink:href="#ajNCwUrPh" opacity="1" fill="#aaaaaa" fill-opacity="1"></use></g><g><use xlink:href="#e1t3l85CWe" opacity="1" fill="#aaaaaa" fill-opacity="1"></use></g><g><use xlink:href="#d1ZW4RrygJ" opacity="1" fill="#aaaaaa" fill-opacity="1"></use></g><g><use xlink:href="#c1rbXc05xG" opacity="1" fill="#aaaaaa" fill-opacity="1"></use></g><g><use xlink:href="#a3fzn22IPt" opacity="1" fill="#aaaaaa" fill-opacity="1"></use></g><g><use xlink:href="#l59bRyBzW" opacity="1" fill="#aaaaaa" fill-opacity="1"></use></g><g><use xlink:href="#d6HHI6Lgt" opacity="1" fill="#aaaaaa" fill-opacity="1"></use></g><g><use xlink:href="#c3z5QdASg0" opacity="1" fill="#aaaaaa" fill-opacity="1"></use></g><g><use xlink:href="#f1Ftr2JOEd" opacity="1" fill="#aaaaaa" fill-opacity="1"></use></g><g><use xlink:href="#a4yLdwlFHy" opacity="1" fill="#aaaaaa" fill-opacity="0"></use><g><use xlink:href="#a4yLdwlFHy" opacity="1" fill-opacity="0" stroke="#aaaaaa" stroke-width="5" stroke-opacity="1"></use></g></g><g><use xlink:href="#a1ZsufHVf7" opacity="1" fill="#aaaaaa" fill-opacity="0.93"></use></g><g><use xlink:href="#aPIaHXmGB" opacity="1" fill="#aaaaaa" fill-opacity="0.93"></use></g><g><use xlink:href="#l3ZkoHN4N" opacity="1" fill="#aaaaaa" fill-opacity="0.93"></use></g><g><use xlink:href="#d6yHHwhvCT" opacity="1" fill="#aaaaaa" fill-opacity="0.93"></use></g><g><use xlink:href="#evAv5LBXl" opacity="1" fill="#aaaaaa" fill-opacity="0"></use><g><use xlink:href="#evAv5LBXl" opacity="1" fill-opacity="0" stroke="#aaaaaa" stroke-width="5" stroke-opacity="1"></use></g></g><g><use xlink:href="#a1ambWvEZg" opacity="1" fill="#aaaaaa" fill-opacity="0.93"></use></g><g><use xlink:href="#a8WkMMT2E" opacity="1" fill="#aaaaaa" fill-opacity="0.93"></use></g><g><use xlink:href="#ccWbZ6ME0" opacity="1" fill="#aaaaaa" fill-opacity="0.93"></use></g><g><use xlink:href="#c1ekdR9qPV" opacity="1" fill="#aaaaaa" fill-opacity="0.93"></use></g><g><use xlink:href="#d2vfj3TCLh" opacity="1" fill="#aaaaaa" fill-opacity="0.93"></use></g><g><use xlink:href="#b1sr5wVNI5" opacity="1" fill="#aaaaaa" fill-opacity="0"></use><g><use xlink:href="#b1sr5wVNI5" opacity="1" fill-opacity="0" stroke="#aaaaaa" stroke-width="5" stroke-opacity="1"></use></g></g><g><use xlink:href="#a4xeEmHSLb" opacity="1" fill="#aaaaaa" fill-opacity="0.93"></use></g><g><use xlink:href="#d4Y8yBNlfd" opacity="1" fill="#aaaaaa" fill-opacity="0.93"></use></g><g><use xlink:href="#aRSh5tQf0" opacity="1" fill="#aaaaaa" fill-opacity="0.93"></use></g><g><use xlink:href="#c1tYodeqw9" opacity="1" fill="#aaaaaa" fill-opacity="0.93"></use></g><g><use xlink:href="#erCE3lwI3" opacity="1" fill="#aaaaaa" fill-opacity="0"></use><g><use xlink:href="#erCE3lwI3" opacity="1" fill-opacity="0" stroke="#aaaaaa" stroke-width="5" stroke-opacity="1"></use></g></g><g><use xlink:href="#d2FrttZwbj" opacity="1" fill="#aaaaaa" fill-opacity="0.93"></use></g><g><use xlink:href="#b6I1ADwI5" opacity="1" fill="#aaaaaa" fill-opacity="0.93"></use></g><g><use xlink:href="#esnZT6WFK" opacity="1" fill="#aaaaaa" fill-opacity="0.93"></use></g><g><use xlink:href="#a5uwxO4EtZ" opacity="1" fill="#aaaaaa" fill-opacity="0.93"></use></g><g><use xlink:href="#d11NQ8xIcx" opacity="1" fill="#aaaaaa" fill-opacity="0.93"></use></g><g><use xlink:href="#aeodakvhc" opacity="1" fill="#aaaaaa" fill-opacity="0.93"></use></g></g></g></svg>